{
  "accessors": [
    {
      "bufferView": 2,
      "componentType": 5126,
      "count": 65532,
      "max": [
        2.9298770427703857,
        6.27096700668335,
        0.998196005821228
      ],
      "min": [
        -2.58829402923584,
        -1.46419095993042,
        -4.177310943603516
      ],
      "type": "VEC3"
    },
    {
      "bufferView": 2,
      "byteOffset": 786384,
      "componentType": 5126,
      "count": 65532,
      "max": [
        0.9999948740005493,
        0.9994336366653442,
        0.9999857544898987
      ],
      "min": [
        -0.9999902248382568,
        -0.9999383687973022,
        -0.9999989867210388
      ],
      "type": "VEC3"
    },
    {
      "bufferView": 1,
      "componentType": 5126,
      "count": 65532,
      "max": [
        0.9989439845085144,
        0.9989539980888367
      ],
      "min": [
        6.199999916134402e-05,
        3.899999865097925e-05
      ],
      "type": "VEC2"
    },
    {
      "bufferView": 0,
      "componentType": 5125,
      "count": 333408,
      "type": "SCALAR"
    },
    {
      "bufferView": 2,
      "byteOffset": 1572768,
      "componentType": 5126,
      "count": 65532,
      "max": [
        2.9946091175079346,
        6.339554786682129,
        0.9705380201339722
      ],
      "min": [
        -2.870418071746826,
        3.406177043914795,
        -4.5346598625183105
      ],
      "type": "VEC3"
    },
    {
      "bufferView": 2,
      "byteOffset": 2359152,
      "componentType": 5126,
      "count": 65532,
      "max": [
        0.9999618530273438,
        0.9993517398834229,
        0.9999282360076904
      ],
      "min": [
        -0.9999760985374451,
        -0.999997615814209,
        -0.9999861121177673
      ],
      "type": "VEC3"
    },
    {
      "bufferView": 1,
      "byteOffset": 524256,
      "componentType": 5126,
      "count": 65532,
      "max": [
        0.998960018157959,
        0.999983012676239
      ],
      "min": [
        9.999999747378752e-06,
        7.200000254670158e-05
      ],
      "type": "VEC2"
    },
    {
      "bufferView": 0,
      "byteOffset": 1333632,
      "componentType": 5125,
      "count": 319077,
      "type": "SCALAR"
    },
    {
      "bufferView": 2,
      "byteOffset": 3145536,
      "componentType": 5126,
      "count": 51970,
      "max": [
        1.9689550399780273,
        6.054903030395508,
        -0.38298800587654114
      ],
      "min": [
        -1.3694119453430176,
        -1.2485320568084717,
        -4.101390838623047
      ],
      "type": "VEC3"
    },
    {
      "bufferView": 2,
      "byteOffset": 3769176,
      "componentType": 5126,
      "count": 51970,
      "max": [
        0.9999966621398926,
        0.9999046325683594,
        0.9999799728393555
      ],
      "min": [
        -0.999995231628418,
        -0.999984622001648,
        -0.9999954700469971
      ],
      "type": "VEC3"
    },
    {
      "bufferView": 1,
      "byteOffset": 1048512,
      "componentType": 5126,
      "count": 51970,
      "max": [
        0.9989719986915588,
        0.9992499947547913
      ],
      "min": [
        7.000000096013537e-06,
        6.0999998822808266e-05
      ],
      "type": "VEC2"
    },
    {
      "bufferView": 0,
      "byteOffset": 2609940,
      "componentType": 5125,
      "count": 246807,
      "type": "SCALAR"
    }
  ],
  "asset": {
    "extras": {
      "author": "dekahobby (https://sketchfab.com/dekahobby)",
      "license": "CC-BY-4.0 (http://creativecommons.org/licenses/by/4.0/)",
      "source": "https://sketchfab.com/3d-models/batang-pohon-d5d09250730744b291f2c0a5552fae02",
      "title": "Batang pohon"
    },
    "generator": "Sketchfab-12.68.0",
    "version": "2.0"
  },
  "bufferViews": [
    {
      "buffer": 0,
      "byteLength": 3597168,
      "name": "floatBufferViews",
      "target": 34963
    },
    {
      "buffer": 0,
      "byteLength": 1464272,
      "byteOffset": 3597168,
      "byteStride": 8,
      "name": "floatBufferViews",
      "target": 34962
    },
    {
      "buffer": 0,
      "byteLength": 4392816,
      "byteOffset": 5061440,
      "byteStride": 12,
      "name": "floatBufferViews",
      "target": 34962
    }
  ],
  "buffers": [
    {
      "byteLength": 9454256,
      "uri": "scene.bin"
    }
  ],
  "images": [
    {
      "uri": "textures/batang2_baseColor.jpeg"
    }
  ],
  "materials": [
    {
      "doubleSided": true,
      "name": "batang2",
      "pbrMetallicRoughness": {
        "baseColorTexture": {
          "index": 0
        },
        "metallicFactor": 0.0
      }
    }
  ],
  "meshes": [
    {
      "name": "Object_0",
      "primitives": [
        {
          "attributes": {
            "NORMAL": 1,
            "POSITION": 0,
            "TEXCOORD_0": 2
          },
          "indices": 3,
          "material": 0,
          "mode": 4
        }
      ]
    },
    {
      "name": "Object_1",
      "primitives": [
        {
          "attributes": {
            "NORMAL": 5,
            "POSITION": 4,
            "TEXCOORD_0": 6
          },
          "indices": 7,
          "material": 0,
          "mode": 4
        }
      ]
    },
    {
      "name": "Object_2",
      "primitives": [
        {
          "attributes": {
            "NORMAL": 9,
            "POSITION": 8,
            "TEXCOORD_0": 10
          },
          "indices": 11,
          "material": 0,
          "mode": 4
        }
      ]
    }
  ],
  "nodes": [
    {
      "children": [
        1
      ],
      "matrix": [
        0.9867846965789795,
        0.012257479131221735,
        0.1615726202726364,
        0.0,
        0.002861627144739032,
        -0.9982975125312805,
        0.05825740098953225,
        0.0,
        0.16201163828372955,
        -0.057025153189897315,
        -0.985139787197113,
        0.0,
        0.2803177237510681,
        0.5637192726135264,
        -4.331681728363037,
        1.0
      ],
      "name": "Sketchfab_model"
    },
    {
      "children": [
        2,
        3,
        4
      ],
      "name": "batang2.obj.cleaner.materialmerger.gles"
    },
    {
      "mesh": 0,
      "name": "Object_2"
    },
    {
      "mesh": 1,
      "name": "Object_3"
    },
    {
      "mesh": 2,
      "name": "Object_4"
    }
  ],
  "samplers": [
    {
      "magFilter": 9729,
      "minFilter": 9987,
      "wrapS": 10497,
      "wrapT": 10497
    }
  ],
  "scene": 0,
  "scenes": [
    {
      "name": "Sketchfab_Scene",
      "nodes": [
        0
      ]
    }
  ],
  "textures": [
    {
      "sampler": 0,
      "source": 0
    }
  ]
}
