{
  "accessors": [
    {
      "bufferView": 2,
      "componentType": 5126,
      "count": 31953,
      "max": [
        12.540987968444824,
        58.25374984741211,
        15.612832069396973
      ],
      "min": [
        -15.665329933166504,
        0.0021746158599853516,
        -13.893555641174316
      ],
      "type": "VEC3"
    },
    {
      "bufferView": 2,
      "byteOffset": 383436,
      "componentType": 5126,
      "count": 31953,
      "max": [
        0.9999420046806335,
        0.9999712705612183,
        0.9999695420265198
      ],
      "min": [
        -0.9997532367706299,
        -0.9999993443489075,
        -0.9999525547027588
      ],
      "type": "VEC3"
    },
    {
      "bufferView": 1,
      "componentType": 5126,
      "count": 31953,
      "max": [
        0.9905019998550415,
        0.9934030175209045
      ],
      "min": [
        0.008802000433206558,
        0.00870901346206665
      ],
      "type": "VEC2"
    },
    {
      "bufferView": 1,
      "byteOffset": 255624,
      "componentType": 5126,
      "count": 31953,
      "max": [
        0.9905019998550415,
        0.9934030175209045
      ],
      "min": [
        0.008802000433206558,
        0.00870901346206665
      ],
      "type": "VEC2"
    },
    {
      "bufferView": 1,
      "byteOffset": 511248,
      "componentType": 5126,
      "count": 31953,
      "max": [
        0.9905019998550415,
        0.9934030175209045
      ],
      "min": [
        0.008802000433206558,
        0.00870901346206665
      ],
      "type": "VEC2"
    },
    {
      "bufferView": 0,
      "componentType": 5125,
      "count": 153504,
      "type": "SCALAR"
    },
    {
      "bufferView": 2,
      "byteOffset": 766872,
      "componentType": 5126,
      "count": 28596,
      "max": [
        13.762861251831055,
        58.78063201904297,
        17.078954696655273
      ],
      "min": [
        -17.14527702331543,
        11.361123085021973,
        -15.272790908813477
      ],
      "type": "VEC3"
    },
    {
      "bufferView": 2,
      "byteOffset": 1110024,
      "componentType": 5126,
      "count": 28596,
      "max": [
        0.9999414086341858,
        0.9999880194664001,
        0.9998400807380676
      ],
      "min": [
        -0.9999010562896729,
        -0.9998046159744263,
        -0.9999258518218994
      ],
      "type": "VEC3"
    },
    {
      "bufferView": 1,
      "byteOffset": 766872,
      "componentType": 5126,
      "count": 28596,
      "max": [
        0.981891393661499,
        0.7415229678153992
      ],
      "min": [
        0.7362039089202881,
        0.016184687614440918
      ],
      "type": "VEC2"
    },
    {
      "bufferView": 1,
      "byteOffset": 995640,
      "componentType": 5126,
      "count": 28596,
      "max": [
        0.981891393661499,
        0.7415229678153992
      ],
      "min": [
        0.7362039089202881,
        0.016184687614440918
      ],
      "type": "VEC2"
    },
    {
      "bufferView": 1,
      "byteOffset": 1224408,
      "componentType": 5126,
      "count": 28596,
      "max": [
        0.981891393661499,
        0.7415229678153992
      ],
      "min": [
        0.7362039089202881,
        0.016184687614440918
      ],
      "type": "VEC2"
    },
    {
      "bufferView": 0,
      "byteOffset": 614016,
      "componentType": 5125,
      "count": 57192,
      "type": "SCALAR"
    }
  ],
  "asset": {
    "extras": {
      "author": "vikanovia28 (https://sketchfab.com/vikanovia28)",
      "license": "CC-BY-4.0 (http://creativecommons.org/licenses/by/4.0/)",
      "source": "https://sketchfab.com/3d-models/pohon-794d4122cec24186b00df68859c480d0",
      "title": "Pohon"
    },
    "generator": "Sketchfab-15.53.0",
    "version": "2.0"
  },
  "bufferViews": [
    {
      "buffer": 0,
      "byteLength": 842784,
      "name": "floatBufferViews",
      "target": 34963
    },
    {
      "buffer": 0,
      "byteLength": 1453176,
      "byteOffset": 842784,
      "byteStride": 8,
      "name": "floatBufferViews",
      "target": 34962
    },
    {
      "buffer": 0,
      "byteLength": 1453176,
      "byteOffset": 2295960,
      "byteStride": 12,
      "name": "floatBufferViews",
      "target": 34962
    }
  ],
  "buffers": [
    {
      "byteLength": 3749136,
      "uri": "scene.bin"
    }
  ],
  "extensionsRequired": [
    "KHR_materials_pbrSpecularGlossiness"
  ],
  "extensionsUsed": [
    "KHR_materials_pbrSpecularGlossiness"
  ],
  "images": [
    {
      "uri": "textures/material_diffuse.png"
    },
    {
      "uri": "textures/material_specularGlossiness.png"
    }
  ],
  "materials": [
    {
      "alphaMode": "MASK",
      "doubleSided": true,
      "extensions": {
        "KHR_materials_pbrSpecularGlossiness": {
          "diffuseFactor": [
            1.0,
            1.0,
            1.0,
            1.0
          ],
          "diffuseTexture": {
            "index": 0
          },
          "glossinessFactor": 1.0,
          "specularFactor": [
            1.0,
            1.0,
            1.0
          ],
          "specularGlossinessTexture": {
            "index": 1
          }
        }
      },
      "name": "material"
    },
    {
      "alphaMode": "MASK",
      "doubleSided": true,
      "extensions": {
        "KHR_materials_pbrSpecularGlossiness": {
          "diffuseFactor": [
            1.0,
            1.0,
            1.0,
            1.0
          ],
          "diffuseTexture": {
            "index": 0
          },
          "glossinessFactor": 1.0,
          "specularFactor": [
            1.0,
            1.0,
            1.0
          ],
          "specularGlossinessTexture": {
            "index": 1
          }
        }
      },
      "name": "material_1"
    }
  ],
  "meshes": [
    {
      "name": "Object_0",
      "primitives": [
        {
          "attributes": {
            "NORMAL": 1,
            "POSITION": 0,
            "TEXCOORD_0": 2,
            "TEXCOORD_1": 3,
            "TEXCOORD_2": 4
          },
          "indices": 5,
          "material": 0,
          "mode": 4
        }
      ]
    },
    {
      "name": "Object_1",
      "primitives": [
        {
          "attributes": {
            "NORMAL": 7,
            "POSITION": 6,
            "TEXCOORD_0": 8,
            "TEXCOORD_1": 9,
            "TEXCOORD_2": 10
          },
          "indices": 11,
          "material": 1,
          "mode": 4
        }
      ]
    }
  ],
  "nodes": [
    {
      "children": [
        1
      ],
      "matrix": [
        1.0,
        0.0,
        0.0,
        0.0,
        0.0,
        2.220446049250313e-16,
        -1.0,
        0.0,
        0.0,
        1.0,
        2.220446049250313e-16,
        0.0,
        0.0,
        0.0,
        0.0,
        1.0
      ],
      "name": "Sketchfab_model"
    },
    {
      "children": [
        2
      ],
      "name": "root"
    },
    {
      "children": [
        3
      ],
      "matrix": [
        1.0,
        0.0,
        0.0,
        0.0,
        0.0,
        2.220446049250313e-16,
        1.0,
        0.0,
        0.0,
        -1.0,
        2.220446049250313e-16,
        0.0,
        0.0,
        0.0,
        0.0,
        1.0
      ],
      "name": "GLTF_SceneRootNode"
    },
    {
      "children": [
        4
      ],
      "name": "root_1"
    },
    {
      "children": [
        5,
        7
      ],
      "matrix": [
        0.0010000000474974513,
        0.0,
        0.0,
        0.0,
        0.0,
        0.0010000000474974513,
        0.0,
        0.0,
        0.0,
        0.0,
        0.0010000000474974513,
        0.0,
        0.0,
        0.0,
        0.0,
        1.0
      ],
      "name": "node_id35_2"
    },
    {
      "children": [
        6
      ],
      "matrix": [
        8.710675239562988,
        0.0,
        0.0,
        0.0,
        0.0,
        8.710675239562988,
        0.0,
        0.0,
        0.0,
        0.0,
        8.710675239562988,
        0.0,
        14.731792449951172,
        -256.01898193359375,
        248.133544921875,
        1.0
      ],
      "name": "node_id31_0"
    },
    {
      "mesh": 0,
      "name": "Object_6"
    },
    {
      "children": [
        8
      ],
      "matrix": [
        8.710675239562988,
        0.0,
        0.0,
        0.0,
        0.0,
        8.710675239562988,
        0.0,
        0.0,
        0.0,
        0.0,
        8.710675239562988,
        0.0,
        14.731792449951172,
        -256.01898193359375,
        248.133544921875,
        1.0
      ],
      "name": "node_id33_3"
    },
    {
      "mesh": 1,
      "name": "Object_8"
    }
  ],
  "samplers": [
    {
      "magFilter": 9729,
      "minFilter": 9987,
      "wrapS": 10497,
      "wrapT": 10497
    }
  ],
  "scene": 0,
  "scenes": [
    {
      "name": "Sketchfab_Scene",
      "nodes": [
        0
      ]
    }
  ],
  "textures": [
    {
      "sampler": 0,
      "source": 0
    },
    {
      "sampler": 0,
      "source": 1
    }
  ]
}
