{
  "accessors": [
    {
      "bufferView": 2,
      "componentType": 5126,
      "count": 20,
      "max": [
        11.499984741210938,
        10.924995422363281,
        0.08000077307224274
      ],
      "min": [
        -11.499984741210938,
        -12.924995422363281,
        -0.3199988901615143
      ],
      "type": "VEC3"
    },
    {
      "bufferView": 2,
      "byteOffset": 240,
      "componentType": 5126,
      "count": 20,
      "max": [
        1.0,
        1.0,
        0.0
      ],
      "min": [
        -1.0,
        -1.0,
        -1.0
      ],
      "type": "VEC3"
    },
    {
      "bufferView": 1,
      "componentType": 5126,
      "count": 20,
      "max": [
        0.29980000853538513,
        1.0
      ],
      "min": [
        0.0,
        0.7502000331878662
      ],
      "type": "VEC2"
    },
    {
      "bufferView": 0,
      "componentType": 5125,
      "count": 30,
      "type": "SCALAR"
    },
    {
      "bufferView": 2,
      "byteOffset": 480,
      "componentType": 5126,
      "count": 65532,
      "max": [
        11.685112953186035,
        10.566905975341797,
        17.37014389038086
      ],
      "min": [
        -11.982022285461426,
        -15.4483060836792,
        0.21151578426361084
      ],
      "type": "VEC3"
    },
    {
      "bufferView": 2,
      "byteOffset": 786864,
      "componentType": 5126,
      "count": 65532,
      "max": [
        0.9862700700759888,
        0.9891563653945923,
        -0.13489948213100433
      ],
      "min": [
        -0.9869616627693176,
        -0.9186979532241821,
        -0.9999998211860657
      ],
      "type": "VEC3"
    },
    {
      "bufferView": 1,
      "byteOffset": 160,
      "componentType": 5126,
      "count": 65532,
      "max": [
        0.9849680066108704,
        1.000985026359558
      ],
      "min": [
        0.0035200000274926424,
        0.00977998971939087
      ],
      "type": "VEC2"
    },
    {
      "bufferView": 0,
      "byteOffset": 120,
      "componentType": 5125,
      "count": 356028,
      "type": "SCALAR"
    },
    {
      "bufferView": 2,
      "byteOffset": 1573248,
      "componentType": 5126,
      "count": 48826,
      "max": [
        13.069453239440918,
        7.930354595184326,
        19.536510467529297
      ],
      "min": [
        -12.783798217773438,
        -15.934062004089355,
        0.2915157377719879
      ],
      "type": "VEC3"
    },
    {
      "bufferView": 2,
      "byteOffset": 2159160,
      "componentType": 5126,
      "count": 48826,
      "max": [
        0.9989609122276306,
        0.9850088953971863,
        0.23303885757923126
      ],
      "min": [
        -0.9947456121444702,
        -0.9573387503623962,
        -1.0
      ],
      "type": "VEC3"
    },
    {
      "bufferView": 1,
      "byteOffset": 524416,
      "componentType": 5126,
      "count": 48826,
      "max": [
        0.9849680066108704,
        1.000985026359558
      ],
      "min": [
        0.0035200000274926424,
        0.00977998971939087
      ],
      "type": "VEC2"
    },
    {
      "bufferView": 0,
      "byteOffset": 1424232,
      "componentType": 5125,
      "count": 273372,
      "type": "SCALAR"
    },
    {
      "bufferView": 2,
      "byteOffset": 2745072,
      "componentType": 5126,
      "count": 20262,
      "max": [
        9.845176696777344,
        9.113311767578125,
        23.206579208374023
      ],
      "min": [
        -9.232231140136719,
        -9.113311767578125,
        -0.14660927653312683
      ],
      "type": "VEC3"
    },
    {
      "bufferView": 2,
      "byteOffset": 2988216,
      "componentType": 5126,
      "count": 20262,
      "max": [
        0.9996316432952881,
        0.9999368786811829,
        0.999512791633606
      ],
      "min": [
        -0.9998756647109985,
        -0.9991397857666016,
        -0.9993179440498352
      ],
      "type": "VEC3"
    },
    {
      "bufferView": 1,
      "byteOffset": 915024,
      "componentType": 5126,
      "count": 20262,
      "max": [
        3.22340989112854,
        108.7739028930664
      ],
      "min": [
        0.2234099954366684,
        0.9223999977111816
      ],
      "type": "VEC2"
    },
    {
      "bufferView": 0,
      "byteOffset": 2517720,
      "componentType": 5125,
      "count": 20262,
      "type": "SCALAR"
    },
    {
      "bufferView": 2,
      "byteOffset": 3231360,
      "componentType": 5126,
      "count": 4,
      "max": [
        11.499984741210938,
        10.924995422363281,
        0.08000077307224274
      ],
      "min": [
        -11.499984741210938,
        -12.924995422363281,
        0.08000077307224274
      ],
      "type": "VEC3"
    },
    {
      "bufferView": 2,
      "byteOffset": 3231408,
      "componentType": 5126,
      "count": 4,
      "max": [
        0.0,
        -0.0,
        1.0
      ],
      "min": [
        0.0,
        -0.0,
        1.0
      ],
      "type": "VEC3"
    },
    {
      "bufferView": 1,
      "byteOffset": 1077120,
      "componentType": 5126,
      "count": 4,
      "max": [
        0.19979995489120483,
        0.19999998807907104
      ],
      "min": [
        0.0,
        0.00019997358322143555
      ],
      "type": "VEC2"
    },
    {
      "bufferView": 0,
      "byteOffset": 2598768,
      "componentType": 5125,
      "count": 6,
      "type": "SCALAR"
    }
  ],
  "asset": {
    "extras": {
      "author": "Cubic Studio (https://sketchfab.com/Cubic_Studio)",
      "license": "CC-BY-4.0 (http://creativecommons.org/licenses/by/4.0/)",
      "source": "https://sketchfab.com/3d-models/diorama-3d-pohon-natural-dan-nyata-ea8fdd54df984469accb5e935c6b910c",
      "title": "Diorama 3D - Pohon Natural dan Nyata"
    },
    "generator": "Sketchfab-12.66.0",
    "version": "2.0"
  },
  "bufferViews": [
    {
      "buffer": 0,
      "byteLength": 2598792,
      "name": "floatBufferViews",
      "target": 34963
    },
    {
      "buffer": 0,
      "byteLength": 1077152,
      "byteOffset": 2598792,
      "byteStride": 8,
      "name": "floatBufferViews",
      "target": 34962
    },
    {
      "buffer": 0,
      "byteLength": 3231456,
      "byteOffset": 3675944,
      "byteStride": 12,
      "name": "floatBufferViews",
      "target": 34962
    }
  ],
  "buffers": [
    {
      "byteLength": 6907400,
      "uri": "scene.bin"
    }
  ],
  "extensionsRequired": [
    "KHR_materials_pbrSpecularGlossiness"
  ],
  "extensionsUsed": [
    "KHR_materials_pbrSpecularGlossiness"
  ],
  "images": [
    {
      "uri": "textures/Material_1_diffuse.png"
    },
    {
      "uri": "textures/Material_2_diffuse.jpeg"
    },
    {
      "uri": "textures/Material_5_diffuse.png"
    }
  ],
  "materials": [
    {
      "doubleSided": true,
      "extensions": {
        "KHR_materials_pbrSpecularGlossiness": {
          "diffuseFactor": [
            1.0,
            1.0,
            1.0,
            1.0
          ],
          "glossinessFactor": 0.4,
          "specularFactor": [
            1.0,
            1.0,
            1.0
          ]
        }
      },
      "name": "Material_0"
    },
    {
      "doubleSided": true,
      "extensions": {
        "KHR_materials_pbrSpecularGlossiness": {
          "diffuseFactor": [
            1.0,
            1.0,
            1.0,
            1.0
          ],
          "diffuseTexture": {
            "index": 0
          },
          "glossinessFactor": 0.4,
          "specularFactor": [
            1.0,
            1.0,
            1.0
          ],
          "specularGlossinessTexture": {
            "index": 0
          }
        }
      },
      "name": "Material_1"
    },
    {
      "doubleSided": true,
      "extensions": {
        "KHR_materials_pbrSpecularGlossiness": {
          "diffuseFactor": [
            1.0,
            1.0,
            1.0,
            1.0
          ],
          "diffuseTexture": {
            "index": 1
          },
          "glossinessFactor": 0.4,
          "specularFactor": [
            1.0,
            1.0,
            1.0
          ],
          "specularGlossinessTexture": {
            "index": 1
          }
        }
      },
      "name": "Material_2"
    },
    {
      "doubleSided": true,
      "extensions": {
        "KHR_materials_pbrSpecularGlossiness": {
          "diffuseFactor": [
            1.0,
            1.0,
            1.0,
            1.0
          ],
          "diffuseTexture": {
            "index": 2
          },
          "glossinessFactor": 0.4,
          "specularFactor": [
            1.0,
            1.0,
            1.0
          ],
          "specularGlossinessTexture": {
            "index": 2
          }
        }
      },
      "name": "Material_5"
    }
  ],
  "meshes": [
    {
      "name": "Object_0",
      "primitives": [
        {
          "attributes": {
            "NORMAL": 1,
            "POSITION": 0,
            "TEXCOORD_0": 2
          },
          "indices": 3,
          "material": 0,
          "mode": 4
        }
      ]
    },
    {
      "name": "Object_1",
      "primitives": [
        {
          "attributes": {
            "NORMAL": 5,
            "POSITION": 4,
            "TEXCOORD_0": 6
          },
          "indices": 7,
          "material": 1,
          "mode": 4
        }
      ]
    },
    {
      "name": "Object_2",
      "primitives": [
        {
          "attributes": {
            "NORMAL": 9,
            "POSITION": 8,
            "TEXCOORD_0": 10
          },
          "indices": 11,
          "material": 1,
          "mode": 4
        }
      ]
    },
    {
      "name": "Object_3",
      "primitives": [
        {
          "attributes": {
            "NORMAL": 13,
            "POSITION": 12,
            "TEXCOORD_0": 14
          },
          "indices": 15,
          "material": 2,
          "mode": 4
        }
      ]
    },
    {
      "name": "Object_4",
      "primitives": [
        {
          "attributes": {
            "NORMAL": 17,
            "POSITION": 16,
            "TEXCOORD_0": 18
          },
          "indices": 19,
          "material": 3,
          "mode": 4
        }
      ]
    }
  ],
  "nodes": [
    {
      "children": [
        1
      ],
      "matrix": [
        1.0,
        0.0,
        0.0,
        0.0,
        0.0,
        2.220446049250313e-16,
        -1.0,
        0.0,
        0.0,
        1.0,
        2.220446049250313e-16,
        0.0,
        0.0,
        0.0,
        0.0,
        1.0
      ],
      "name": "Sketchfab_model"
    },
    {
      "children": [
        2,
        3,
        4,
        5,
        6
      ],
      "name": "Test_Hasil_0820_1646.obj.cleaner.materialmerger.gles"
    },
    {
      "mesh": 0,
      "name": "Object_2"
    },
    {
      "mesh": 1,
      "name": "Object_3"
    },
    {
      "mesh": 2,
      "name": "Object_4"
    },
    {
      "mesh": 3,
      "name": "Object_5"
    },
    {
      "mesh": 4,
      "name": "Object_6"
    }
  ],
  "samplers": [
    {
      "magFilter": 9729,
      "minFilter": 9987,
      "wrapS": 10497,
      "wrapT": 10497
    }
  ],
  "scene": 0,
  "scenes": [
    {
      "name": "Sketchfab_Scene",
      "nodes": [
        0
      ]
    }
  ],
  "textures": [
    {
      "sampler": 0,
      "source": 0
    },
    {
      "sampler": 0,
      "source": 1
    },
    {
      "sampler": 0,
      "source": 2
    }
  ]
}
